<svg width="203" height="69" viewBox="0 0 203 69" fill="none" xmlns="http://www.w3.org/2000/svg">
<path d="M21.722 15.5266L6.83917 44.8H0.604797L18.9798 10.675H22.9876L21.722 15.5266ZM24.9564 44.8L20.1282 14.8937L20.4798 10.675H24.2064L30.7923 44.8H24.9564ZM26.6204 32.1437L25.8001 36.8078H7.75323L8.57355 32.1437H26.6204ZM46.636 10.675L40.7064 44.8H34.9642L40.8939 10.675H46.636ZM53.6673 10.675L65.0814 10.6984C67.1595 10.7453 69.0189 11.1359 70.6595 11.8703C72.3157 12.6047 73.5892 13.7062 74.4798 15.175C75.386 16.6437 75.7454 18.5031 75.5579 20.7531C75.4173 22.5656 74.9485 24.1125 74.1517 25.3937C73.3704 26.6594 72.3392 27.7297 71.0579 28.6047C69.7923 29.4797 68.3548 30.2062 66.7454 30.7844L64.847 31.6281H53.9954L54.7689 26.9641L62.3626 26.9875C63.6126 26.9875 64.7689 26.7609 65.8314 26.3078C66.8939 25.8391 67.7767 25.1672 68.4798 24.2922C69.1829 23.4016 69.6204 22.3156 69.7923 21.0344C69.9485 19.8469 69.8548 18.8391 69.511 18.0109C69.1673 17.1828 68.6048 16.55 67.8235 16.1125C67.0423 15.6594 66.0735 15.4172 64.9173 15.3859L58.6126 15.3625L53.5032 44.8H47.7376L53.6673 10.675ZM66.7923 44.8L61.6595 29.4719L67.4017 29.4484L72.9095 44.4719V44.8H66.7923Z" fill="#05092D"/>
<path d="M98.6439 40.1359L97.8235 44.8H81.1595L81.9798 40.1359H98.6439ZM88.7298 10.675L82.8001 44.8H77.0345L82.9642 10.675H88.7298ZM114.277 10.675L108.347 44.8H102.605L108.534 10.675H114.277ZM147.628 10.675L141.699 44.8H136.12L125.409 20.1203L121.144 44.8H115.378L121.308 10.675H126.886L137.62 35.4016L141.909 10.675H147.628ZM170.972 40.1359L170.152 44.8H152.55L153.347 40.1359H170.972ZM160.12 10.675L154.191 44.8H148.425L154.355 10.675H160.12ZM171.3 24.925L170.503 29.5187H155.175L155.995 24.925H171.3ZM175.941 10.675L175.12 15.3625H157.636L158.48 10.675H175.941ZM193.753 35.8469C193.894 34.925 193.808 34.1516 193.495 33.5266C193.183 32.8859 192.73 32.3547 192.136 31.9328C191.558 31.4953 190.902 31.1281 190.167 30.8312C189.433 30.5344 188.706 30.2531 187.988 29.9875C186.8 29.5656 185.628 29.0656 184.472 28.4875C183.316 27.9094 182.269 27.2219 181.331 26.425C180.409 25.6281 179.691 24.6906 179.175 23.6125C178.659 22.5187 178.449 21.2453 178.542 19.7922C178.667 18.1516 179.128 16.7297 179.925 15.5266C180.738 14.3078 181.769 13.3 183.019 12.5031C184.269 11.7062 185.636 11.1203 187.12 10.7453C188.605 10.3547 190.081 10.175 191.55 10.2062C193.628 10.2531 195.48 10.6984 197.105 11.5422C198.73 12.3859 200.003 13.5812 200.925 15.1281C201.847 16.675 202.269 18.5109 202.191 20.6359H196.472C196.566 19.4484 196.417 18.4328 196.027 17.5891C195.652 16.7297 195.058 16.0656 194.245 15.5969C193.433 15.1125 192.425 14.8625 191.222 14.8469C190.144 14.8156 189.105 14.9797 188.105 15.3391C187.105 15.6828 186.253 16.2219 185.55 16.9562C184.863 17.6906 184.433 18.6359 184.261 19.7922C184.136 20.6047 184.245 21.3078 184.589 21.9016C184.949 22.4953 185.441 22.9953 186.066 23.4016C186.691 23.8078 187.363 24.1516 188.081 24.4328C188.8 24.7141 189.472 24.9641 190.097 25.1828C191.363 25.6203 192.574 26.1437 193.73 26.7531C194.902 27.3469 195.941 28.0578 196.847 28.8859C197.753 29.7141 198.449 30.6984 198.933 31.8391C199.417 32.9641 199.605 34.2844 199.495 35.8C199.355 37.4719 198.886 38.9172 198.089 40.1359C197.292 41.3391 196.277 42.3234 195.042 43.0891C193.808 43.8547 192.449 44.4172 190.964 44.7766C189.48 45.1359 187.98 45.3 186.464 45.2687C184.855 45.2531 183.331 45.0031 181.894 44.5187C180.472 44.0344 179.222 43.3312 178.144 42.4094C177.066 41.4719 176.23 40.3391 175.636 39.0109C175.058 37.6828 174.8 36.1672 174.863 34.4641L180.581 34.4875C180.519 35.4875 180.613 36.3781 180.863 37.1594C181.128 37.925 181.534 38.5656 182.081 39.0812C182.628 39.5969 183.292 39.9875 184.074 40.2531C184.87 40.5187 185.761 40.6516 186.745 40.6516C187.808 40.6828 188.839 40.5344 189.839 40.2062C190.855 39.8781 191.714 39.3625 192.417 38.6594C193.136 37.9406 193.581 37.0031 193.753 35.8469Z" fill="white"/>
<path d="M6.30371 51.8179L4.08008 64.6148H1.92676L4.15039 51.8179H6.30371ZM18.8105 51.8179L16.5869 64.6148H14.4951L10.4785 55.3599L8.87891 64.6148H6.7168L8.94043 51.8179H11.0322L15.0576 61.0904L16.666 51.8179H18.8105ZM26.1934 51.8179L23.9785 64.6148H21.834L24.0576 51.8179H26.1934ZM30.0869 51.8179L29.7793 53.5757H19.8916L20.1992 51.8179H30.0869ZM37.9355 62.8658L37.6279 64.6148H31.0273L31.3262 62.8658H37.9355ZM33.8662 51.8179L31.6426 64.6148H29.4805L31.7041 51.8179H33.8662ZM38.0586 57.1617L37.7598 58.8843H32.0117L32.3193 57.1617H38.0586ZM39.7988 51.8179L39.4912 53.5757H32.9346L33.251 51.8179H39.7988ZM41.583 51.8179L45.8633 51.8267C46.6426 51.8443 47.3398 51.9908 47.9551 52.2662C48.5762 52.5416 49.0537 52.9547 49.3877 53.5054C49.7275 54.0562 49.8623 54.7535 49.792 55.5972C49.7393 56.2769 49.5635 56.857 49.2646 57.3375C48.9717 57.8121 48.585 58.2134 48.1045 58.5416C47.6299 58.8697 47.0908 59.1422 46.4873 59.3589L45.7754 59.6754H41.7061L41.9961 57.9263L44.8438 57.9351C45.3125 57.9351 45.7461 57.8502 46.1445 57.6802C46.543 57.5045 46.874 57.2525 47.1377 56.9244C47.4014 56.5904 47.5654 56.1832 47.6299 55.7027C47.6885 55.2574 47.6533 54.8795 47.5244 54.5689C47.3955 54.2584 47.1846 54.0211 46.8916 53.857C46.5986 53.6871 46.2354 53.5963 45.8018 53.5845L43.4375 53.5757L41.5215 64.6148H39.3594L41.583 51.8179ZM46.5049 64.6148L44.5801 58.8668L46.7334 58.858L48.7988 64.4918V64.6148H46.5049ZM62.4395 51.8179L60.2158 64.6148H58.124L54.1074 55.3599L52.5078 64.6148H50.3457L52.5693 51.8179H54.6611L58.6865 61.0904L60.2949 51.8179H62.4395ZM69.6641 53.6373L64.083 64.6148H61.7451L68.6357 51.8179H70.1387L69.6641 53.6373ZM70.877 64.6148L69.0664 53.4L69.1982 51.8179H70.5957L73.0654 64.6148H70.877ZM71.501 59.8687L71.1934 61.6177H64.4258L64.7334 59.8687H71.501ZM80.7207 51.8179L78.5059 64.6148H76.3613L78.585 51.8179H80.7207ZM84.6143 51.8179L84.3066 53.5757H74.4189L74.7266 51.8179H84.6143ZM88.5342 51.8179L86.3105 64.6148H84.1572L86.3809 51.8179H88.5342ZM100.021 57.8472L99.9336 58.5416C99.8164 59.3502 99.5996 60.1324 99.2832 60.8882C98.9727 61.6382 98.5625 62.3121 98.0527 62.9097C97.5488 63.5015 96.9453 63.9673 96.2422 64.3072C95.5391 64.647 94.7393 64.8082 93.8428 64.7906C92.9873 64.773 92.2666 64.5826 91.6807 64.2193C91.0947 63.856 90.6348 63.3755 90.3008 62.7779C89.9727 62.1802 89.7529 61.5181 89.6416 60.7916C89.5303 60.0591 89.5215 59.3179 89.6152 58.5679L89.7119 57.8736C89.8291 57.0709 90.0459 56.2945 90.3623 55.5445C90.6787 54.7945 91.0918 54.1236 91.6016 53.5318C92.1113 52.9341 92.7178 52.4654 93.4209 52.1255C94.124 51.7857 94.9209 51.6246 95.8115 51.6422C96.6729 51.6597 97.3936 51.8502 97.9736 52.2134C98.5596 52.5709 99.0166 53.0484 99.3447 53.6461C99.6787 54.2437 99.8984 54.9058 100.004 55.6324C100.109 56.3589 100.115 57.0972 100.021 57.8472ZM97.7715 58.5679L97.8682 57.8384C97.9209 57.399 97.9443 56.9302 97.9385 56.4322C97.9326 55.9283 97.8623 55.4537 97.7275 55.0084C97.5928 54.5572 97.3643 54.188 97.042 53.9009C96.7256 53.6138 96.2744 53.4586 95.6885 53.4351C95.085 53.4117 94.5576 53.5318 94.1064 53.7955C93.6611 54.0533 93.2861 54.4019 92.9814 54.8414C92.6768 55.2808 92.4336 55.7642 92.252 56.2916C92.0762 56.8189 91.9531 57.3375 91.8828 57.8472L91.7861 58.5767C91.7275 59.0103 91.7012 59.4791 91.707 59.983C91.7188 60.4869 91.792 60.9644 91.9268 61.4156C92.0615 61.8668 92.29 62.2418 92.6123 62.5406C92.9346 62.8336 93.3828 62.9888 93.957 63.0064C94.5723 63.0298 95.1025 62.9097 95.5479 62.6461C95.9932 62.3824 96.3682 62.0308 96.6729 61.5914C96.9775 61.1519 97.2178 60.6685 97.3936 60.1412C97.5752 59.6138 97.7012 59.0894 97.7715 58.5679ZM113.082 51.8179L110.858 64.6148H108.767L104.75 55.3599L103.15 64.6148H100.988L103.212 51.8179H105.304L109.329 61.0904L110.938 51.8179H113.082ZM120.307 53.6373L114.726 64.6148H112.388L119.278 51.8179H120.781L120.307 53.6373ZM121.52 64.6148L119.709 53.4L119.841 51.8179H121.238L123.708 64.6148H121.52ZM122.144 59.8687L121.836 61.6177H115.068L115.376 59.8687H122.144ZM133.227 62.8658L132.919 64.6148H126.67L126.978 62.8658H133.227ZM129.509 51.8179L127.285 64.6148H125.123L127.347 51.8179H129.509ZM145.918 51.8179L143.703 64.6148H141.559L143.782 51.8179H145.918ZM149.812 51.8179L149.504 53.5757H139.616L139.924 51.8179H149.812ZM151.429 51.8179L155.709 51.8267C156.488 51.8443 157.186 51.9908 157.801 52.2662C158.422 52.5416 158.899 52.9547 159.233 53.5054C159.573 54.0562 159.708 54.7535 159.638 55.5972C159.585 56.2769 159.409 56.857 159.11 57.3375C158.817 57.8121 158.431 58.2134 157.95 58.5416C157.476 58.8697 156.937 59.1422 156.333 59.3589L155.621 59.6754H151.552L151.842 57.9263L154.689 57.9351C155.158 57.9351 155.592 57.8502 155.99 57.6802C156.389 57.5045 156.72 57.2525 156.983 56.9244C157.247 56.5904 157.411 56.1832 157.476 55.7027C157.534 55.2574 157.499 54.8795 157.37 54.5689C157.241 54.2584 157.03 54.0211 156.737 53.857C156.444 53.6871 156.081 53.5963 155.647 53.5845L153.283 53.5757L151.367 64.6148H149.205L151.429 51.8179ZM156.351 64.6148L154.426 58.8668L156.579 58.858L158.645 64.4918V64.6148H156.351ZM166.959 53.6373L161.378 64.6148H159.04L165.931 51.8179H167.434L166.959 53.6373ZM168.172 64.6148L166.361 53.4L166.493 51.8179H167.891L170.36 64.6148H168.172ZM168.796 59.8687L168.488 61.6177H161.721L162.028 59.8687H168.796ZM175.766 62.1802L180.626 51.8179H183.069L176.618 64.6148H174.948L175.766 62.1802ZM174.351 51.8179L175.977 62.3736L176.047 64.6148H174.482L172.057 51.8179H174.351ZM190.777 62.8658L190.47 64.6148H183.869L184.168 62.8658H190.777ZM186.708 51.8179L184.484 64.6148H182.322L184.546 51.8179H186.708ZM190.9 57.1617L190.602 58.8843H184.854L185.161 57.1617H190.9ZM192.641 51.8179L192.333 53.5757H185.776L186.093 51.8179H192.641ZM200.305 62.8658L199.997 64.6148H193.748L194.056 62.8658H200.305ZM196.587 51.8179L194.363 64.6148H192.201L194.425 51.8179H196.587Z" fill="white"/>
</svg>
